<svg version="1.1" id="Layer_1" xmlns="http://www.w3.org/2000/svg" xmlns:xlink="http://www.w3.org/1999/xlink" x="0px" y="0px"
	 width="100%" viewBox="0 0 1885 440" enable-background="new 0 0 1885 440" xml:space="preserve">
<path fill="#E22326" opacity="1.000000" stroke="none" 
	d="
M1689.000000,0.999989 
	C1705.020874,1.000000 1721.041870,1.000000 1737.711792,1.386863 
	C1747.203735,3.181760 1756.204224,3.956957 1764.861328,6.111516 
	C1796.146118,13.897528 1823.649414,28.289104 1845.412354,52.797134 
	C1860.824463,70.153313 1871.816650,89.753326 1877.540283,112.203178 
	C1879.730103,120.792137 1881.086792,129.593491 1882.915283,138.760269 
	C1854.544067,138.760269 1827.462646,138.760269 1800.405273,138.760269 
	C1796.833618,116.949997 1785.296631,100.404930 1767.606934,87.967453 
	C1742.020874,69.978218 1713.934326,67.993217 1684.896973,76.731964 
	C1659.996826,84.225655 1642.683472,101.236832 1631.032593,124.101265 
	C1621.150757,143.494049 1616.502563,164.475250 1615.180176,185.957077 
	C1613.497437,213.295578 1615.606934,240.383652 1625.991089,266.205597 
	C1633.710571,285.401733 1644.943115,302.093811 1662.410645,313.670776 
	C1684.491455,328.305328 1709.216553,331.751099 1734.828613,327.800262 
	C1760.852783,323.785797 1779.195435,308.561218 1791.183472,285.410431 
	C1797.876343,272.485138 1801.564575,258.634918 1803.500488,244.000000 
	C1831.062866,244.000000 1858.531372,244.000000 1886.000000,244.000000 
	C1886.000000,245.066666 1886.000000,246.133347 1885.636230,247.746674 
	C1885.515015,250.195541 1885.757446,252.097778 1886.000000,254.000000 
	C1886.000000,254.444443 1886.000000,254.888901 1885.644043,255.799866 
	C1883.857666,262.235565 1882.387695,268.195587 1881.003784,274.175537 
	C1874.439819,302.538971 1861.984863,327.979675 1842.618408,349.762238 
	C1830.646240,363.228149 1816.147583,373.751984 1800.137573,381.879883 
	C1778.100342,393.067719 1754.345459,398.722778 1729.809326,399.755737 
	C1714.678589,400.392761 1699.292114,399.766815 1684.297852,397.697906 
	C1662.376099,394.673096 1641.507812,387.655853 1622.058472,376.635162 
	C1604.004150,366.405029 1588.343140,353.521790 1575.026489,337.607697 
	C1558.825684,318.246277 1547.203857,296.400848 1540.153076,272.312256 
	C1535.937866,257.911438 1533.331909,243.039566 1529.991699,228.331299 
	C1470.359619,228.331299 1410.293701,228.331299 1350.366455,228.331299 
	C1350.366455,259.390900 1350.366455,290.117950 1350.366455,321.142456 
	C1418.672729,321.142456 1486.613037,321.142456 1554.742432,321.142456 
	C1554.742432,344.837524 1554.742432,368.230682 1554.742432,391.712158 
	C1458.094971,391.712158 1361.705322,391.712158 1264.651367,391.712158 
	C1264.651367,370.645081 1264.651367,349.859406 1264.651367,328.156158 
	C1263.246094,329.470886 1262.439941,329.906738 1262.114624,330.576202 
	C1254.435913,346.375793 1243.225708,359.148804 1229.070435,369.443939 
	C1211.471069,382.243896 1191.765747,390.345764 1170.642822,394.874268 
	C1160.940918,396.954254 1150.977173,397.925079 1141.087646,398.984039 
	C1132.102539,399.946198 1123.058472,400.832489 1114.038574,400.850098 
	C1105.855469,400.866119 1097.674561,399.601807 1089.484497,399.016113 
	C1074.158569,397.920044 1059.192505,394.930115 1044.608887,390.194641 
	C1018.655823,381.767487 995.703064,368.634918 978.425110,346.909882 
	C968.517761,334.452484 960.842041,320.829468 956.961304,305.252289 
	C955.969238,301.270172 954.856750,297.318054 953.799622,293.352142 
	C952.525940,294.232422 952.266785,294.967224 951.986816,295.694000 
	C951.638123,296.598999 951.327148,297.523926 950.906006,298.394836 
	C939.351624,322.291931 923.953674,343.167175 903.396362,360.220001 
	C888.462097,372.608429 872.008850,382.433014 853.820068,388.729645 
	C841.495544,392.996216 828.487183,395.568512 815.597473,397.833740 
	C804.975403,399.700439 794.092590,400.537354 783.298584,400.823975 
	C775.137573,401.040710 766.847778,400.200195 758.769531,398.883850 
	C745.655518,396.746857 732.433350,394.662567 719.682617,391.052368 
	C701.460632,385.893005 684.688843,377.138641 669.533081,365.757935 
	C652.050537,352.630127 637.175903,336.951385 626.001831,317.992615 
	C622.503357,312.056732 619.057129,306.089966 615.444641,299.893097 
	C612.876648,307.863708 610.631287,315.407684 608.017700,322.821777 
	C602.983643,337.102112 594.472717,349.331909 583.639648,359.609650 
	C572.265930,370.400330 559.080811,378.771240 544.508972,384.939514 
	C527.178711,392.275482 509.129578,396.919373 490.531891,398.810608 
	C477.688293,400.116638 464.663513,399.588562 451.724274,400.018890 
	C433.046539,400.639984 414.835236,397.554535 396.869659,392.947601 
	C371.386261,386.412933 348.108826,375.554810 329.740173,356.109833 
	C322.723328,348.681824 316.463104,340.539093 309.840912,332.701721 
	C309.108368,333.889679 307.978241,335.653046 306.915680,337.456207 
	C296.359100,355.370392 281.498535,368.877380 263.451569,378.792908 
	C234.777893,394.547058 203.421890,399.816345 171.220718,400.913513 
	C154.423706,401.485779 137.736328,399.934906 121.098396,397.136810 
	C103.374870,394.156097 86.211258,389.446167 70.203362,381.464172 
	C53.874409,373.322113 39.185921,362.790710 27.609304,348.234619 
	C17.045464,334.951935 8.902819,320.610626 4.882998,304.011230 
	C4.047936,300.562927 2.317684,297.331421 0.999999,294.000000 
	C1.000000,293.555542 1.000000,293.111115 1.343110,292.213959 
	C1.457479,290.507507 1.228738,289.253754 0.999999,288.000000 
	C1.000000,280.645752 1.000000,273.291504 1.468657,265.468628 
	C28.863201,265.000000 55.789085,265.000000 82.473183,265.000000 
	C83.022568,270.665344 83.242088,275.761688 84.055168,280.761475 
	C86.162125,293.717560 92.236343,304.994812 101.593056,313.808838 
	C116.832825,328.164673 136.225494,333.376007 156.491806,334.841187 
	C171.426849,335.920837 186.496017,335.382599 201.012970,330.949768 
	C219.723297,325.236389 235.799454,316.224518 239.547379,294.760162 
	C241.443527,283.900970 239.418991,273.488525 231.544495,265.099823 
	C222.154694,255.096924 210.237030,248.871750 197.348953,245.132004 
	C169.388748,237.018799 141.144806,229.887863 113.139061,221.925583 
	C93.811218,216.430496 74.757317,210.081589 57.695370,198.970795 
	C42.122036,188.829346 29.315863,175.946869 21.694721,158.990921 
	C11.509335,136.329910 10.930166,112.616478 16.731218,88.598564 
	C22.738102,63.728447 37.823730,44.972462 57.748985,30.249065 
	C79.872864,13.901041 105.441467,5.772691 132.739609,2.962224 
	C136.850174,2.539021 140.914352,1.665314 145.000000,1.000000 
	C152.020950,1.000000 159.041901,1.000000 166.721283,1.392932 
	C177.812897,2.854363 188.288300,3.618090 198.670166,5.056717 
	C218.450607,7.797710 237.256012,13.751954 254.405060,24.136101 
	C277.486084,38.112194 294.939270,56.878639 303.049744,83.240135 
	C304.757843,88.791946 306.326721,94.386574 307.720612,99.145042 
	C310.893402,89.712410 313.345734,79.404915 317.749329,70.012222 
	C324.982361,54.584419 336.243134,42.073463 349.793732,31.709564 
	C369.856689,16.364868 392.806610,8.063875 417.494202,3.978313 
	C422.684937,3.119292 427.832520,1.999582 433.000000,0.999999 
	C445.354218,1.000000 457.708466,1.000000 470.705048,1.382553 
	C476.850922,2.507612 482.352203,3.266747 487.858307,3.989694 
	C509.456543,6.825533 529.989990,12.849371 548.898193,23.964275 
	C567.834717,35.095886 582.443054,50.312473 592.363159,69.887398 
	C598.283569,81.569855 601.370667,94.177452 602.925171,107.116646 
	C603.622192,112.918388 603.566833,118.810532 603.854614,124.695847 
	C576.042236,124.695847 548.639954,124.695847 521.356567,124.695847 
	C520.871033,119.982651 520.901123,115.469223 519.883240,111.206017 
	C514.842651,90.094902 501.371094,76.595772 480.671295,71.221786 
	C466.269562,67.482880 451.489655,65.960320 436.357513,67.825241 
	C420.330719,69.800407 406.553467,75.044403 396.298767,88.118584 
	C388.520599,98.035385 387.809601,118.902161 394.624176,128.386475 
	C399.604034,135.317276 406.626251,139.326599 414.016846,141.734772 
	C434.453247,148.393784 455.191315,154.150040 475.897064,159.953003 
	C498.011749,166.150803 520.400696,171.426544 542.336304,178.187393 
	C557.520142,182.867279 570.969360,191.378143 582.671997,202.268829 
	C586.647583,205.968536 590.076416,210.255753 594.450623,215.034286 
	C595.028992,204.461426 595.338806,195.573120 596.045959,186.716537 
	C596.867432,176.427887 597.161743,165.986633 599.233643,155.930740 
	C603.918579,133.193176 610.861267,111.179688 622.510620,90.800621 
	C629.927490,77.825714 638.463074,65.745232 648.673096,54.933487 
	C664.797913,37.858490 683.793762,24.611200 705.631042,16.002007 
	C717.162170,11.455936 729.305725,8.402746 741.283569,5.074427 
	C747.734985,3.281752 754.420227,2.330747 761.000000,0.999994 
	C773.354248,1.000000 785.708435,1.000000 798.717041,1.390287 
	C805.878418,2.518144 812.391541,3.206050 818.891235,4.002950 
	C835.788391,6.074632 851.824219,11.192161 867.047791,18.615191 
	C888.265320,28.960863 907.032104,42.557968 922.419067,60.769310 
	C933.958557,74.426895 943.418457,89.228355 950.887024,105.439713 
	C963.971069,133.840088 969.496155,163.928131 970.875366,194.871887 
	C971.330994,205.096191 970.443970,215.390976 969.938416,225.642059 
	C969.746277,229.537064 968.997009,233.416458 968.332703,237.273895 
	C966.754150,246.439957 965.074829,255.588654 963.352661,265.211121 
	C987.021545,265.211121 1010.442871,265.211121 1033.571167,265.211121 
	C1034.093750,268.760834 1034.721802,271.821838 1034.970459,274.913361 
	C1036.462158,293.449982 1045.080566,308.050385 1059.864990,318.915497 
	C1075.383545,330.320129 1093.613037,333.884491 1112.273804,334.802521 
	C1121.733887,335.267914 1131.340332,334.048676 1140.801270,332.923431 
	C1156.728271,331.029114 1170.916748,325.400024 1182.299927,313.341522 
	C1194.641968,300.267181 1195.002319,276.316284 1182.084473,263.647430 
	C1173.577026,255.303864 1163.418579,249.380676 1152.040771,246.046494 
	C1129.537598,239.451981 1106.956787,233.101608 1084.297241,227.066498 
	C1060.339844,220.685730 1036.445190,214.266266 1014.641724,201.953217 
	C1002.891174,195.317352 992.526855,186.816315 984.256653,176.318130 
	C973.754883,162.987030 967.371948,147.838638 965.745972,130.491165 
	C964.500122,117.198921 964.680664,104.116394 967.476929,91.246010 
	C972.879822,66.378082 987.216003,46.885342 1007.046936,31.685244 
	C1027.101562,16.313627 1050.229004,7.669281 1075.218384,3.924406 
	C1078.550171,3.425113 1081.742920,1.997630 1085.000000,0.999996 
	C1098.687622,1.000000 1112.375122,1.000000 1126.712158,1.387180 
	C1133.534912,2.513901 1139.714233,3.206350 1145.880249,4.001437 
	C1168.015747,6.855721 1188.924805,13.420648 1208.075073,25.041731 
	C1221.127808,32.962612 1232.245972,43.059769 1241.072510,55.583282 
	C1250.080078,68.363716 1256.211182,82.443291 1258.815796,97.829224 
	C1260.307617,106.642952 1260.632690,115.654205 1261.497681,124.729874 
	C1233.358521,124.729874 1206.272827,124.729874 1179.280029,124.729874 
	C1178.483398,119.788673 1178.083130,115.034981 1176.914795,110.478287 
	C1173.174316,95.891159 1165.773926,84.039215 1151.804565,76.902237 
	C1140.706543,71.232170 1128.990479,69.062172 1116.688354,67.752724 
	C1102.358154,66.227394 1088.474121,67.040970 1075.179321,72.171234 
	C1062.588013,77.030075 1052.314697,85.078926 1048.618896,98.926636 
	C1045.447510,110.809547 1045.333984,122.738182 1055.398682,131.546738 
	C1060.880249,136.344131 1067.614502,140.492416 1074.499756,142.754242 
	C1093.843140,149.108658 1113.489502,154.585007 1133.146240,159.929428 
	C1151.891113,165.025894 1171.066162,168.671204 1189.573730,174.478775 
	C1217.025391,183.092957 1241.166992,197.149094 1257.527344,221.989166 
	C1259.575073,225.098389 1261.854736,228.054810 1264.026978,231.082016 
	C1264.388672,230.955521 1264.750366,230.829041 1265.112061,230.702545 
	C1265.112061,157.195740 1265.112061,83.688934 1265.112061,10.379528 
	C1360.760498,10.379528 1455.814697,10.379528 1550.762573,10.379528 
	C1550.762573,34.368275 1550.762573,57.976860 1550.762573,82.058838 
	C1483.802979,82.058838 1417.078857,82.058838 1350.301636,82.058838 
	C1350.301636,108.928207 1350.301636,135.320770 1350.301636,161.855743 
	C1411.218140,161.855743 1471.832886,161.855743 1532.788208,161.855743 
	C1535.966797,141.890076 1541.432007,122.642914 1549.970947,104.372810 
	C1561.894287,78.862068 1577.972900,56.620045 1600.339478,39.007835 
	C1623.420166,20.833326 1649.300659,9.344936 1678.057495,3.952876 
	C1681.759399,3.258756 1685.355103,1.998163 1689.000000,0.999989 
M680.007812,190.812805 
	C680.676758,204.662018 680.164185,218.701279 682.352600,232.306076 
	C684.466797,245.449997 688.294006,258.577972 693.279846,270.942261 
	C701.689331,291.796906 715.845642,308.318329 736.029175,318.964386 
	C757.913025,330.507355 781.430847,332.173462 805.132202,327.714508 
	C829.901367,323.054688 849.308289,309.461823 863.389648,288.264099 
	C878.969788,264.810059 884.323730,238.387054 885.785522,211.029373 
	C886.406189,199.414612 885.004944,187.643158 883.930359,175.997559 
	C882.184509,157.076797 877.026184,139.149643 868.134460,122.192703 
	C858.866455,104.517967 845.639771,90.950745 827.949158,82.103447 
	C808.222656,72.237991 787.174988,71.119530 765.539062,73.879166 
	C740.975098,77.012268 721.407593,88.837685 706.748474,108.064697 
	C691.753784,127.731934 684.647827,150.824249 681.982178,175.308685 
	C681.452515,180.174133 680.707458,185.016129 680.007812,190.812805 
M460.593872,235.992798 
	C448.082520,232.662201 435.577057,229.309433 423.058594,226.005753 
	C399.538055,219.798538 376.195374,213.126511 355.060822,200.547791 
	C338.700836,190.810760 325.747681,177.841888 316.946442,160.821198 
	C311.180420,149.670288 308.925659,137.637695 307.655609,124.905746 
	C280.748840,124.905746 254.004837,124.905746 227.425964,124.905746 
	C226.904312,121.374489 226.501770,118.307571 225.992447,115.258492 
	C223.218857,98.654060 215.725403,84.882164 200.286316,77.178650 
	C177.790741,65.954239 153.836349,64.819839 129.738708,70.338531 
	C119.280449,72.733604 109.949944,78.171799 103.077438,87.236504 
	C98.547112,93.211914 96.155746,99.438133 95.815056,106.945358 
	C95.487007,114.173889 95.719589,121.030579 99.742607,127.304314 
	C105.668571,136.545654 115.066269,140.966751 124.883736,143.884384 
	C149.841019,151.301437 174.984726,158.098328 200.101868,164.967682 
	C214.619583,168.938156 229.573837,171.592804 243.720932,176.574066 
	C266.324738,184.532928 286.679108,196.579285 301.473175,216.130157 
	C306.225128,222.410034 310.784973,229.132446 313.831940,236.330048 
	C317.633514,245.310379 319.780426,254.991150 322.887146,265.173767 
	C339.990936,265.173767 358.394104,265.173767 376.512512,265.173767 
	C377.047943,269.572510 377.577881,273.465576 377.987457,277.371246 
	C379.659546,293.315643 387.155457,306.422913 399.170380,316.412964 
	C415.078583,329.640137 434.598114,333.835480 454.673096,334.807404 
	C464.134674,335.265533 473.733154,334.000549 483.203339,332.929993 
	C499.134583,331.129089 513.580261,325.758484 524.817322,313.670563 
	C535.872803,301.778076 537.855591,279.633331 527.222046,266.720581 
	C519.351318,257.162903 508.949829,251.179382 497.579803,247.133728 
	C485.717834,242.913055 473.506104,239.675369 460.593872,235.992798 
z"/>
<path fill="#E22326" opacity="1.000000" stroke="none" 
	d="
M995.468628,441.000000 
	C995.000000,434.194672 995.000000,427.389313 995.000000,420.293823 
	C1283.998047,420.293823 1572.692383,420.293823 1862.000000,420.293823 
	C1862.000000,426.861908 1862.000000,433.462341 1862.000000,440.531403 
	C1573.312500,441.000000 1284.624878,441.000000 995.468628,441.000000 
z"/>
</svg>
